<svg width="18" height="18" viewBox="0 0 18 18" fill="none" xmlns="http://www.w3.org/2000/svg">
<path fill-rule="evenodd" clip-rule="evenodd" d="M6.91751 2.83201C7.1691 1.98707 7.90696 1.125 8.99989 1.125C10.0931 1.125 10.8302 1.9871 11.0837 2.83045C11.085 2.83203 11.0867 2.83401 11.0889 2.83629C11.0941 2.84171 11.1 2.84669 11.1055 2.85056C11.1098 2.8535 11.1123 2.85477 11.1126 2.85492C11.7488 3.11686 12.4977 3.53528 13.0834 4.30136C13.6738 5.07359 14.0578 6.1456 14.0578 7.64121C14.0578 9.13241 14.2151 9.95013 14.4468 10.5115C14.65 11.0037 14.9171 11.3272 15.2972 11.7876C15.3527 11.8549 15.4106 11.925 15.4711 11.9991L15.4713 11.9992C16.1718 12.8574 15.5103 14.0625 14.4312 14.0625H3.57212C2.49499 14.0625 1.82233 12.8635 2.52867 11.9991C2.5892 11.925 2.64717 11.8548 2.70273 11.7875C3.08277 11.3272 3.34992 11.0036 3.55324 10.5113C3.78513 9.94993 3.94283 9.13221 3.94372 7.64121M6.91751 2.83201C6.91654 2.83316 6.91533 2.83452 6.91384 2.83606C6.90905 2.84103 6.90339 2.84582 6.89775 2.84971C6.89251 2.85332 6.88936 2.85473 6.88936 2.85473L6.88902 2.85487C6.25254 3.11698 5.50344 3.53461 4.9177 4.3005C4.32734 5.07243 3.94377 6.14429 3.94372 7.64089M8.99989 2.25C8.56682 2.25 8.15322 2.61114 7.99316 3.1618L7.99275 3.16321C7.88955 3.51486 7.60379 3.77732 7.3174 3.89512C7.31735 3.89514 7.31731 3.89516 7.31727 3.89518C6.77992 4.11647 6.23058 4.43571 5.81132 4.98392C5.3967 5.52607 5.06872 6.34552 5.06872 7.64121V7.64154C5.06782 9.19662 4.90596 10.1832 4.59303 10.9408C4.3208 11.5999 3.94077 12.0579 3.56371 12.5124C3.50892 12.5784 3.45419 12.6444 3.39986 12.7109L3.39982 12.7109C3.37743 12.7383 3.37117 12.7608 3.36964 12.7777C3.3679 12.7968 3.37151 12.8198 3.38355 12.8434C3.40446 12.8843 3.4565 12.9375 3.57212 12.9375H14.4312C14.5426 12.9375 14.5938 12.8861 14.6151 12.844C14.638 12.7989 14.6351 12.7541 14.5999 12.7109C14.5456 12.6444 14.4909 12.5785 14.4362 12.5125C14.0591 12.058 13.679 11.5999 13.4069 10.9407C13.0942 10.183 12.9328 9.1963 12.9328 7.64121C12.9328 6.34718 12.6046 5.52743 12.1896 4.98464C11.77 4.43576 11.2204 4.1159 10.6842 3.89514C10.3946 3.77603 10.1119 3.50989 10.0093 3.1641L10.0088 3.16267C9.8467 2.61087 9.43298 2.25 8.99989 2.25Z" fill="#3B3F4E"/>
<path fill-rule="evenodd" clip-rule="evenodd" d="M6.75 12.9375C7.06066 12.9375 7.3125 13.1893 7.3125 13.5V14.0625C7.3125 14.5101 7.49029 14.9393 7.80676 15.2557C8.12322 15.5722 8.55245 15.75 9 15.75C9.44755 15.75 9.87677 15.5722 10.1932 15.2557C10.5097 14.9393 10.6875 14.5101 10.6875 14.0625V13.5C10.6875 13.1893 10.9393 12.9375 11.25 12.9375C11.5607 12.9375 11.8125 13.1893 11.8125 13.5V14.0625C11.8125 14.8084 11.5162 15.5238 10.9887 16.0512C10.4613 16.5787 9.74592 16.875 9 16.875C8.25408 16.875 7.53871 16.5787 7.01126 16.0512C6.48382 15.5238 6.1875 14.8084 6.1875 14.0625V13.5C6.1875 13.1893 6.43934 12.9375 6.75 12.9375Z" fill="#3B3F4E"/>
<circle cx="14" cy="4" r="3" fill="#F7444E"/>
</svg>
