<svg width="23" height="20" viewBox="0 0 23 20" fill="none" xmlns="http://www.w3.org/2000/svg">
<path fill-rule="evenodd" clip-rule="evenodd" d="M1.52507 0C0.682797 0 0 0.682797 0 1.52507C0 2.36734 0.682797 3.05014 1.52507 3.05014H15.4248C16.2671 3.05014 16.9499 2.36734 16.9499 1.52507C16.9499 0.682797 16.2671 0 15.4248 0H1.52507ZM0 9.99999C0 9.15772 0.682797 8.47492 1.52507 8.47492H21.0748C21.917 8.47492 22.5998 9.15772 22.5998 9.99999C22.5998 10.8423 21.917 11.5251 21.0748 11.5251H1.52507C0.682797 11.5251 0 10.8423 0 9.99999ZM0 18.4749C0 17.6327 0.682797 16.9499 1.52507 16.9499H15.4248C16.2671 16.9499 16.9499 17.6327 16.9499 18.4749C16.9499 19.3172 16.2671 20 15.4248 20H1.52507C0.682797 20 0 19.3172 0 18.4749Z" fill="#3B3F4E"/>
</svg>
