<svg width="24" height="24" viewBox="0 0 24 24" fill="none" xmlns="http://www.w3.org/2000/svg">
<g clip-path="url(#clip0_0_476)">
<path d="M16.7069 7.3255L14.0094 4.62805C13.9211 4.53903 13.8161 4.46837 13.7003 4.42015C13.5846 4.37193 13.4604 4.3471 13.3351 4.3471C13.2097 4.3471 13.0855 4.37193 12.9698 4.42015C12.854 4.46837 12.749 4.53903 12.6607 4.62805C12.4838 4.80601 12.3845 5.04674 12.3845 5.29767C12.3845 5.54859 12.4838 5.78932 12.6607 5.96728L14.6743 7.98086L6.98086 15.6743L4.96728 13.6607C4.78932 13.4838 4.54859 13.3845 4.29766 13.3845C4.04674 13.3845 3.80601 13.4838 3.62805 13.6607C3.53903 13.749 3.46837 13.854 3.42015 13.9698C3.37193 14.0855 3.3471 14.2097 3.3471 14.3351C3.3471 14.4604 3.37193 14.5846 3.42015 14.7003C3.46837 14.8161 3.53903 14.9211 3.62805 15.0094L6.297 17.6784L8.96596 20.3473C9.05392 20.4371 9.15882 20.5085 9.27458 20.5574C9.39034 20.6063 9.51465 20.6317 9.64032 20.6323C9.82897 20.6334 10.0137 20.5783 10.1709 20.474C10.3281 20.3697 10.4507 20.2209 10.523 20.0467C10.5954 19.8725 10.6142 19.6806 10.5771 19.4957C10.54 19.3107 10.4486 19.1409 10.3147 19.0081L8.32959 17.023L16.023 9.32959L18.0366 11.3432C18.1251 11.4311 18.2302 11.5007 18.3456 11.5481C18.4611 11.5954 18.5848 11.6196 18.7096 11.6191C18.8344 11.6187 18.9579 11.5937 19.073 11.5455C19.1881 11.4974 19.2926 11.427 19.3806 11.3384C19.4685 11.2499 19.5381 11.1449 19.5855 11.0294C19.6328 10.9139 19.657 10.7903 19.6565 10.6655C19.6561 10.5407 19.6311 10.4172 19.5829 10.302C19.5347 10.1869 19.4644 10.0824 19.3758 9.99445L16.7069 7.3255ZM3.62805 17.6879C3.4492 17.509 3.20663 17.4085 2.95369 17.4085C2.70076 17.4085 2.45818 17.509 2.27933 17.6879C2.10048 17.8667 2 18.1093 2 18.3622C2 18.6152 2.10048 18.8577 2.27933 19.0366L4.96728 21.7245C5.05603 21.8126 5.16128 21.8822 5.277 21.9295C5.39272 21.9767 5.51664 22.0007 5.64164 22C5.76664 22.0007 5.89055 21.9767 6.00628 21.9295C6.122 21.8822 6.22725 21.8126 6.316 21.7245C6.40502 21.6362 6.47568 21.5312 6.5239 21.4155C6.57212 21.2997 6.59695 21.1756 6.59695 21.0502C6.59695 20.9248 6.57212 20.8006 6.5239 20.6849C6.47568 20.5692 6.40502 20.4641 6.316 20.3758L3.62805 17.6879ZM20.7245 5.96728L18.0366 3.27933C17.948 3.19077 17.8429 3.12052 17.7272 3.0726C17.6115 3.02467 17.4875 3 17.3622 3C17.237 3 17.113 3.02467 16.9973 3.0726C16.8816 3.12052 16.7764 3.19077 16.6879 3.27933C16.5993 3.36789 16.5291 3.47302 16.4811 3.58873C16.4332 3.70444 16.4085 3.82845 16.4085 3.95369C16.4085 4.07893 16.4332 4.20295 16.4811 4.31865C16.5291 4.43436 16.5993 4.53949 16.6879 4.62805L19.3758 7.316C19.4641 7.40502 19.5692 7.47568 19.6849 7.5239C19.8006 7.57213 19.9248 7.59695 20.0502 7.59695C20.1756 7.59695 20.2997 7.57213 20.4154 7.5239C20.5312 7.47568 20.6362 7.40502 20.7245 7.316C20.8136 7.2277 20.8842 7.12265 20.9324 7.00691C20.9807 6.89117 21.0055 6.76702 21.0055 6.64164C21.0055 6.51625 20.9807 6.39211 20.9324 6.27637C20.8842 6.16062 20.8136 6.05557 20.7245 5.96728Z" fill="#7D7E8C"/>
</g>
<defs>
<clipPath id="clip0_0_476">
<rect width="24" height="24" fill="white"/>
</clipPath>
</defs>
</svg>
