<svg width="48" height="48" viewBox="0 0 48 48" fill="none" xmlns="http://www.w3.org/2000/svg">
<path fill-rule="evenodd" clip-rule="evenodd" d="M42.5 24C42.5 34.2173 34.2173 42.5 24 42.5C13.7827 42.5 5.5 34.2173 5.5 24C5.5 13.7827 13.7827 5.5 24 5.5C34.2173 5.5 42.5 13.7827 42.5 24ZM24 44C35.0457 44 44 35.0457 44 24C44 12.9543 35.0457 4 24 4C12.9543 4 4 12.9543 4 24C4 35.0457 12.9543 44 24 44ZM20 32.6603L33.5 24.866C34.1667 24.4811 34.1667 23.5189 33.5 23.134L20 15.3397C19.3333 14.9548 18.5 15.436 18.5 16.2058L18.5 31.7942C18.5 32.564 19.3333 33.0452 20 32.6603Z" fill="white"/>
</svg>
