<svg width="18" height="18" viewBox="0 0 18 18" fill="none" xmlns="http://www.w3.org/2000/svg">
<path fill-rule="evenodd" clip-rule="evenodd" d="M4.39196 2.71304C5.39267 2.04439 6.56918 1.6875 7.77271 1.6875V2.25L7.77275 1.6875C9.3866 1.6876 10.9343 2.32875 12.0755 3.46992C13.2167 4.61108 13.8578 6.15881 13.8579 7.77266V7.7727C13.8579 8.97623 13.501 10.1527 12.8324 11.1534C12.1637 12.1542 11.2133 12.9341 10.1014 13.3947C8.98949 13.8553 7.76596 13.9758 6.58555 13.741C5.40514 13.5062 4.32086 12.9266 3.46983 12.0756C2.6188 11.2245 2.03924 10.1403 1.80444 8.95986C1.56964 7.77945 1.69015 6.55592 2.15073 5.44399C2.6113 4.33207 3.39125 3.38169 4.39196 2.71304ZM7.77271 2.8125C9.08821 2.81259 10.3498 3.33521 11.28 4.26541C12.2102 5.19561 12.7328 6.4572 12.7329 7.7727M7.77268 2.8125C6.79166 2.81251 5.83267 3.10342 5.01698 3.64844C4.20128 4.19348 3.56552 4.96815 3.19009 5.87451C2.81466 6.78087 2.71644 7.7782 2.90783 8.74038C3.09922 9.70257 3.57163 10.5864 4.26533 11.2801C4.95902 11.9738 5.84284 12.4462 6.80503 12.6376C7.76721 12.829 8.76454 12.7307 9.6709 12.3553C10.5773 11.9799 11.3519 11.3441 11.897 10.5284C12.442 9.71274 12.7329 8.75375 12.7329 7.77273" fill="#3B3F4E"/>
<path fill-rule="evenodd" clip-rule="evenodd" d="M11.4952 11.4952C11.7149 11.2756 12.0711 11.2756 12.2907 11.4952L16.1477 15.3522C16.3674 15.5719 16.3674 15.928 16.1477 16.1477C15.928 16.3674 15.5719 16.3674 15.3522 16.1477L11.4952 12.2907C11.2756 12.0711 11.2756 11.7149 11.4952 11.4952Z" fill="#3B3F4E"/>
</svg>
