<svg width="24" height="24" viewBox="0 0 24 24" fill="none" xmlns="http://www.w3.org/2000/svg">
<path d="M11.4042 5.94727L12.0256 6.53004L12.6997 6.00917C14.4445 4.66106 16.3038 4.49584 17.6666 5.08589C19.0048 5.66532 20.0549 7.05444 20.0547 9.25524V9.25535C20.0547 12.1322 18.1019 14.6326 15.9204 16.504C14.8512 17.4212 13.7772 18.1437 12.9683 18.6374C12.6058 18.8587 12.2987 19.0327 12.0721 19.1563C11.8475 19.0416 11.5447 18.8803 11.1878 18.674C10.3821 18.2082 9.31237 17.5195 8.24763 16.6267C6.08507 14.8133 4.12189 12.3125 4.12189 9.25535C4.12189 5.05799 8.64698 3.36138 11.4042 5.94727Z" stroke="black" stroke-opacity="0.56" stroke-width="2"/>
</svg>
